<?xml version="1.0" standalone="no"?>
<!DOCTYPE svg PUBLIC "-//W3C//DTD SVG 20010904//EN"
 "http://www.w3.org/TR/2001/REC-SVG-20010904/DTD/svg10.dtd">
<svg version="1.0" xmlns="http://www.w3.org/2000/svg"
 width="1500.000000pt" height="1500.000000pt" viewBox="0 0 1500.000000 1500.000000"
 preserveAspectRatio="xMidYMid meet">
<metadata>
Created by potrace 1.11, written by Peter Selinger 2001-2013
</metadata>
<g transform="translate(0.000000,1500.000000) scale(0.100000,-0.100000)"
fill="#000000" stroke="none">
<path d="M10200 11120 l0 -960 1035 0 1036 0 -4 -1642 c-3 -1606 -4 -1645 -24
-1753 -70 -375 -176 -589 -395 -801 -159 -153 -357 -265 -626 -354 -410 -135
-852 -192 -1664 -216 l-228 -6 0 -981 0 -980 348 7 c1591 32 2697 284 3427
784 678 463 1066 1153 1199 2132 52 375 49 251 53 3088 l4 2642 -2081 0 -2080
0 0 -960z"/>
<path d="M610 7725 l0 -4295 1050 0 1050 0 2 2133 3 2132 616 -920 616 -920
588 0 588 0 616 908 616 908 3 -2121 2 -2120 1040 0 1040 0 0 4295 0 4295
-822 -2 -822 -3 -818 -1205 c-450 -663 -956 -1408 -1124 -1657 -169 -249 -310
-450 -314 -448 -4 2 -513 749 -1131 1659 l-1124 1655 -837 1 -838 0 0 -4295z"/>
</g>
</svg>
